<svg height="488pt" viewBox="0 -22 488.25879 488" width="488pt" xmlns="http://www.w3.org/2000/svg">
    <path d="m57.277344 172.03125 47.402344 74.296875h-94.699219zm0 0" fill="#AEA0F2" />
    <g fill="#6C5EB0">
        <path d="m266.277344.128906c-5.519532 0-10 4.476563-10 10 0 5.523438 4.480468 10 10 10 111.300781 0 201.902344 90.601563 201.902344 201.902344 0 111.296875-90.601563 201.699219-201.902344 201.699219-98.414063.28125-182.597656-70.660157-199-167.699219h37.402344c3.628906.09375 7.015624-1.824219 8.796874-4.992188 1.78125-3.164062 1.667969-7.054687-.296874-10.109374l-47.402344-74.300782c-1.816406-2.882812-4.992188-4.621094-8.398438-4.597656-3.394531.019531-6.554687 1.75-8.398437 4.597656l-47.402344 74.402344c-1.992187 3.003906-2.105469 6.878906-.300781 10 1.792968 3.15625 5.171875 5.074219 8.800781 5h37c18.101563 116.746094 124.503906 198.839844 242.023437 186.730469 117.519532-12.109375 204.945313-114.171875 198.863282-232.160157-6.082032-117.984374-103.542969-210.5156245-221.6875-210.472656zm-209 190.199219 29.203125 45.703125h-58.300781zm0 0" />
        <path d="m255.179688 249.03125h89c5.523437 0 10-4.480469 10-10 0-5.523438-4.476563-10-10-10h-79.101563v-107.101562c0-5.523438-4.476563-10-10-10s-10 4.476562-10 10v116.800781c.039063 5.59375 4.507813 10.148437 10.101563 10.300781zm0 0" />
    </g>
</svg>