<?xml version="1.0" encoding="iso-8859-1"?>
<!-- Generator: Adobe Illustrator 19.0.0, SVG Export Plug-In . SVG Version: 6.00 Build 0)  -->
<svg version="1.1" id="Capa_1" xmlns="http://www.w3.org/2000/svg" xmlns:xlink="http://www.w3.org/1999/xlink" x="0px" y="0px"
	 viewBox="0 0 427.055 427.055" style="enable-background:new 0 0 427.055 427.055;" xml:space="preserve">
<path style="fill:#AEA0F2;" d="M366.727,344.468v53.31c-0.003,5.523-4.482,9.998-10.005,9.995c-2.437-0.001-4.789-0.892-6.615-2.505
	l-27.78-24.58c-3.803-3.359-9.517-3.341-13.3,0.04l-37.77,33.77c-3.793,3.4-9.537,3.4-13.33,0l-37.73-33.74
	c-3.801-3.39-9.539-3.39-13.34,0l-37.73,33.74c-3.793,3.4-9.537,3.4-13.33,0l-37.77-33.77c-3.783-3.381-9.497-3.399-13.3-0.04
	l-27.78,24.58c-4.139,3.656-10.459,3.264-14.115-0.875c-1.613-1.826-2.504-4.178-2.505-6.615v-368.5
	c0.003-5.523,4.482-9.998,10.005-9.995c2.437,0.001,4.789,0.892,6.615,2.505l27.78,24.58c3.803,3.359,9.517,3.341,13.3-0.04
	l37.77-33.77c3.793-3.4,9.537-3.4,13.33,0l37.73,33.74c3.801,3.39,9.539,3.39,13.34,0l37.73-33.74c3.793-3.4,9.537-3.4,13.33,0
	l37.77,33.77c3.783,3.381,9.497,3.399,13.3,0.04l27.78-24.58c4.139-3.656,10.459-3.264,14.115,0.875
	c1.613,1.826,2.504,4.178,2.505,6.615V344.468z"/>
<g>
	<path style="fill:#6C5EB0;" d="M364.837,11.043c-7.146-3.291-15.565-2.011-21.41,3.256l-27.76,24.574l-37.74-33.759
		c-7.582-6.814-19.081-6.818-26.668-0.01l-37.735,33.74L175.793,5.106c-7.584-6.807-19.078-6.807-26.662,0l-37.777,33.773
		L83.575,14.3c-8.198-7.285-20.75-6.544-28.035,1.654c-3.26,3.669-5.046,8.416-5.013,13.324v368.5
		c-0.065,10.983,8.785,19.939,19.767,20.004c4.912,0.029,9.662-1.761,13.333-5.025l27.763-24.574l37.737,33.759
		c7.582,6.814,19.081,6.818,26.668,0.01l37.735-33.74l37.727,33.738c7.584,6.807,19.078,6.807,26.662,0l37.777-33.776l27.779,24.579
		c8.196,7.287,20.748,6.55,28.035-1.646c3.263-3.67,5.05-8.418,5.017-13.329v-368.5C376.625,21.409,372.028,14.238,364.837,11.043
		L364.837,11.043z M356.627,397.769l-27.72-24.572c-7.595-6.711-19.009-6.678-26.565,0.077l-37.756,33.77l-37.733-33.748
		c-7.594-6.781-19.07-6.778-26.66,0.008l-37.728,33.74l-37.778-33.779c-7.528-6.749-18.921-6.777-26.482-0.066l-27.678,24.568
		V282.588l-0.095-253.3l27.72,24.572c7.594,6.713,19.01,6.68,26.565-0.077l37.756-33.77l37.733,33.748
		c7.595,6.78,19.069,6.777,26.66-0.008l37.728-33.74l37.778,33.779c7.528,6.749,18.921,6.777,26.482,0.066l27.673-24.569v253.3
		L356.627,397.769z"/>
	<path style="fill:#6C5EB0;" d="M308.317,203.528h-189.58c-5.523,0-10,4.477-10,10c0,5.523,4.477,10,10,10h189.58
		c5.523,0,10-4.477,10-10C318.317,208.005,313.84,203.528,308.317,203.528z"/>
	<path style="fill:#6C5EB0;" d="M118.737,163.528h99.58c5.523,0,10-4.477,10-10s-4.477-10-10-10h-99.58c-5.523,0-10,4.477-10,10
		S113.214,163.528,118.737,163.528z"/>
	<path style="fill:#6C5EB0;" d="M308.317,263.528h-189.58c-5.523,0-10,4.477-10,10s4.477,10,10,10h189.58c5.523,0,10-4.477,10-10
		S313.84,263.528,308.317,263.528z"/>
</g>
<g>
</g>
<g>
</g>
<g>
</g>
<g>
</g>
<g>
</g>
<g>
</g>
<g>
</g>
<g>
</g>
<g>
</g>
<g>
</g>
<g>
</g>
<g>
</g>
<g>
</g>
<g>
</g>
<g>
</g>
</svg>
