<svg height="428pt" viewBox="-1 0 428 428.34289" width="428pt" xmlns="http://www.w3.org/2000/svg">
    <path d="m155.542969 94.601562h222.578125c22.089844 0 40 17.910157 40 40v43.652344h-93.257813c-22.09375 0-40 17.90625-40 40v78.707032c0 22.09375 17.90625 40 40 40h93.257813v43.640624c0 22.09375-17.910156 40-40 40h-329.898438c-22.09375 0-40-17.90625-40-40v-246c0-22.089843 17.90625-40 40-40zm0 0" fill="#AEA0F2" /> <!-- Wallet front -->
    <path d="m418.121094 178.253906v158.707032h-93.257813c-22.09375 0-40-17.90625-40-40v-78.707032c0-22.09375 17.90625-40 40-40zm-59.960938 79.347656c0-10.214843-8.28125-18.5-18.5-18.5-10.214844 0-18.5 8.285157-18.5 18.5 0 10.21875 8.285156 18.5 18.5 18.5 10.21875 0 18.5-8.28125 18.5-18.5zm0 0" fill="#7C66EA" /> <!-- Wallet arm -->
    <path d="m319.210938 16.792969 36.992187 77.808593h-200.660156l102.660156-48.800781zm0 0" fill="#00acea" /> <!-- Front Card -->
    <path d="m358.160156 257.601562c0 10.21875-8.28125 18.5-18.5 18.5-10.214844 0-18.5-8.28125-18.5-18.5 0-10.214843 8.285156-18.5 18.5-18.5 10.21875 0 18.5 8.285157 18.5 18.5zm0 0" fill="#C5BCF6" /> <!-- Wallet button -->
    <path d="m231.8125 8.082031 26.390625 37.71875-102.660156 48.800781h-47.410157zm0 0" fill="#fedb41" /> <!-- Back Card -->
    <g fill="#083863"> <!-- Outline -->
        <path d="m48.222656 428.34375h329.898438c26.457031.09375 47.976562-21.285156 48.050781-47.742188v-246c-.03125-26.558593-21.492187-48.109374-48.050781-48.257812h-16.867188l-34.816406-73.113281c-.914062-1.902344-2.550781-3.355469-4.546875-4.039063-2.003906-.703125-4.203125-.578125-6.113281.34375l-54.90625 26.117188-22.503906-32.164063c-2.503907-3.648437-7.484376-4.585937-11.140626-2.09375l-121.617187 84.949219h-57.386719c-26.558594.148438-48.019531 21.699219-48.050781 48.257812v246c.074219 26.457032 21.59375 47.835938 48.050781 47.742188zm361.949219-99h-85.308594c-17.644531 0-31.691406-14.734375-31.691406-32.382812v-78.707032c-.054687-8.441406 3.257813-16.558594 9.207031-22.550781 5.949219-5.988281 14.039063-9.359375 22.484375-9.359375h85.308594zm-66.632813-243h-152.535156l124.417969-59.148438zm-113.699218-67.25 16.382812 23.347656-92.484375 43.902344h-20.214843zm-213.667969 115.507812c.019531-17.726562 14.324219-32.121093 32.050781-32.257812h329.898438c17.726562.136719 32.027344 14.53125 32.050781 32.257812v35.742188h-85.308594c-12.6875.003906-24.847656 5.0625-33.792969 14.050781-8.949218 8.992188-13.949218 21.171875-13.898437 33.859375v78.707032c0 26.46875 21.222656 48.382812 47.691406 48.382812h85.308594v35.257812c-.03125 8.464844-3.429687 16.566407-9.441406 22.519532s-14.148438 9.273437-22.609375 9.222656h-329.898438c-8.464844.050781-16.597656-3.269531-22.609375-9.222656-6.015625-5.953125-9.410156-14.054688-9.441406-22.519532zm0 0" />
        <path d="m313.160156 257.601562c0 14.636719 11.867188 26.5 26.5 26.5 14.636719 0 26.5-11.863281 26.5-26.5 0-14.632812-11.863281-26.5-26.5-26.5-14.628906.015626-26.480468 11.871094-26.5 26.5zm26.5-10.5c5.800782 0 10.5 4.703126 10.5 10.5 0 5.800782-4.699218 10.5-10.5 10.5-5.796875 0-10.5-4.699218-10.5-10.5.007813-5.796874 4.703125-10.492187 10.5-10.5zm0 0" />
    </g>
</svg>