<?xml version="1.0" encoding="iso-8859-1"?>
<!-- Generator: Adobe Illustrator 19.0.0, SVG Export Plug-In . SVG Version: 6.00 Build 0)  -->
<svg version="1.1" id="Capa_1" xmlns="http://www.w3.org/2000/svg" xmlns:xlink="http://www.w3.org/1999/xlink" x="0px" y="0px"
	 viewBox="0 0 433.633 433.633" style="enable-background:new 0 0 433.633 433.633;" xml:space="preserve">
<g>
	<g>
		<path style="fill:#AEA0F2;" d="M425.796,227.265v83.592c0,17.312-14.035,31.347-31.347,31.347h-15.673v-57.469h-15.151
			c11.237-0.038,21.832-5.239,28.735-14.106L425.796,227.265z"/>
		<path style="fill:#AEA0F2;" d="M425.796,133.224v94.041l-33.437,43.363c-6.902,8.867-17.498,14.068-28.735,14.106h-57.992
			c-25.969,0-47.02-21.052-47.02-47.02c-0.29-25.678,20.291-46.73,45.97-47.02c0.35-0.004,0.701-0.004,1.051,0h57.992
			c5.44,0.034,10.811-1.219,15.673-3.657c5.134-2.376,9.616-5.962,13.061-10.449L425.796,133.224z"/>
		<path style="fill:#AEA0F2;" d="M425.796,80.98v52.245l-33.437,43.363c-3.445,4.487-7.927,8.073-13.061,10.449h-0.522v-64.261
			c0-17.312-14.035-31.347-31.347-31.347H60.082V80.98c0-17.312,14.034-31.347,31.347-31.347h303.02
			C411.761,49.633,425.796,63.667,425.796,80.98z"/>
		<path style="fill:#AEA0F2;" d="M378.776,186.514h0.522c-4.863,2.438-10.234,3.692-15.673,3.657h-57.992
			c-25.678-0.29-46.73,20.291-47.02,45.97c-0.004,0.35-0.004,0.701,0,1.051c0,25.969,21.052,47.02,47.02,47.02l0,0h73.143v68.441
			c0,17.312-14.035,31.347-31.347,31.347H44.408c-17.312,0-31.347-14.035-31.347-31.347V122.776
			c0-17.312,14.035-31.347,31.347-31.347h303.02c17.312,0,31.347,14.035,31.347,31.347V186.514z"/>
	</g>
	<g>
		<path style="fill:#6C5EB0;" d="M394.449,39.184H91.429c-23.083,0-41.796,18.713-41.796,41.796h-5.224
			C21.42,80.98,0,99.788,0,122.776v229.878c0,22.988,21.42,41.796,44.408,41.796h303.02c23.083,0,41.796-18.713,41.796-41.796h5.224
			c22.988,0,39.184-18.808,39.184-41.796V80.98C433.633,57.992,417.437,39.184,394.449,39.184z M382.955,264.359
			c-4.549,6.135-11.694,9.804-19.331,9.927h-57.992c-20.198,0-36.571-16.374-36.571-36.571c-0.061-9.84,3.902-19.277,10.971-26.122
			c6.772-6.797,16.006-10.566,25.6-10.449h57.992c6.893-0.005,13.69-1.615,19.853-4.702c6.336-3.059,11.745-7.747,15.673-13.584
			l13.584-18.808v59.559L382.955,264.359z M91.429,60.082h303.02c11.494,0,18.286,9.404,18.286,20.898v48.588l-26.122,33.959
			v-40.751c0-22.988-16.196-41.796-39.184-41.796H70.531C70.531,69.438,79.887,60.082,91.429,60.082z M365.714,352.653
			c0,11.494-6.792,20.898-18.286,20.898H44.408c-11.494,0-23.51-9.404-23.51-20.898V122.776c0-11.494,12.016-20.898,23.51-20.898
			h303.02c11.494,0,18.286,9.404,18.286,20.898v56.947c0,0.522-0.522,0.522-2.09,0.522h-57.992
			c-31.739,0-57.469,25.73-57.469,57.469s25.73,57.469,57.469,57.469h57.992c1.567,0,2.09,0,2.09-0.522V352.653z M394.449,331.755
			h-7.837v-44.408c4.634-2.482,8.583-6.071,11.494-10.449l14.629-18.808v52.767C412.735,322.351,405.943,331.755,394.449,331.755z"
			/>
		<path style="fill:#6C5EB0;" d="M328.098,248.163h-24.033c-5.771,0-10.449-4.678-10.449-10.449c0-5.771,4.678-10.449,10.449-10.449
			h24.033c5.771,0,10.449,4.678,10.449,10.449C338.547,243.485,333.869,248.163,328.098,248.163L328.098,248.163z"/>
	</g>
</g>
<g>
</g>
<g>
</g>
<g>
</g>
<g>
</g>
<g>
</g>
<g>
</g>
<g>
</g>
<g>
</g>
<g>
</g>
<g>
</g>
<g>
</g>
<g>
</g>
<g>
</g>
<g>
</g>
<g>
</g>
</svg>
